#N canvas 288 556 473 303 10;
#X obj 100 41 metro 200;
#X obj 100 16 tgl 15 0 empty empty empty 17 7 0 10 -262144 -1 -1 0
1;
#X obj 133 146 f;
#X obj 100 226 print;
#X msg 265 53 1;
#X msg 264 75 -1;
#X text 301 53 count up;
#X text 302 74 count down;
#X obj 100 146 +;
#X obj 100 107 f 1;
#X msg 264 30 2;
#X msg 264 97 -2;
#X text 259 2 accumulate step;
#X connect 0 0 9 0;
#X connect 1 0 0 0;
#X connect 2 0 8 1;
#X connect 4 0 9 1;
#X connect 5 0 9 1;
#X connect 8 0 2 0;
#X connect 8 0 3 0;
#X connect 9 0 8 0;
#X connect 10 0 9 1;
#X connect 11 0 9 1;
