#N canvas 0 0 450 300 10;
#X obj 58 257 delwrite~ \$0-a1 100;
#X obj 43 280 delwrite~ \$0-a2 100;
#X obj 293 159 vd~ \$0-a2;
#X obj 224 159 vd~ \$0-a1;
#X obj 383 29 * 2;
#X obj 293 108 *~;
#X obj 293 134 +~;
#X obj 224 108 *~;
#X obj 224 134 +~;
#X obj 293 57 + 1;
#X obj 293 30 * 5;
#X obj 69 206 s~ \$0-d;
#X obj 365 158 r~ \$0-d;
#X obj 59 179 *~ 0.3;
#X obj 293 208 *~ 1;
#X obj -3 141 r~ \$0-fb;
#X obj 213 280 s~ \$0-fb;
#X obj 213 256 *~;
#X obj 43 231 +~;
#X obj 214 55 * 0.4;
#X obj 293 83 osc~;
#X obj 224 83 osc~;
#X obj 59 0 inlet~;
#X obj 214 0 inlet fb;
#X obj 214 31 clip -1 1;
#X obj 293 0 inlet rate;
#X obj 383 0 inlet depth;
#X obj 293 280 outlet~ l;
#X obj 365 280 outlet~ r;
#X connect 2 0 14 0;
#X connect 3 0 14 0;
#X connect 4 0 6 1;
#X connect 4 0 5 1;
#X connect 4 0 7 1;
#X connect 4 0 8 1;
#X connect 5 0 6 0;
#X connect 6 0 2 0;
#X connect 7 0 8 0;
#X connect 8 0 3 0;
#X connect 9 0 20 0;
#X connect 10 0 9 0;
#X connect 10 0 21 0;
#X connect 12 0 28 0;
#X connect 13 0 11 0;
#X connect 13 0 18 1;
#X connect 14 0 17 1;
#X connect 14 0 27 0;
#X connect 15 0 18 0;
#X connect 17 0 16 0;
#X connect 18 0 0 0;
#X connect 18 0 1 0;
#X connect 19 0 17 0;
#X connect 20 0 5 0;
#X connect 21 0 7 0;
#X connect 22 0 13 0;
#X connect 23 0 24 0;
#X connect 24 0 19 0;
#X connect 25 0 10 0;
#X connect 26 0 4 0;
